<?xml version="1.0" encoding="UTF-8" standalone="no"?>
<!DOCTYPE svg PUBLIC "-//W3C//DTD SVG 1.1//EN"
 "http://www.w3.org/Graphics/SVG/1.1/DTD/svg11.dtd">
<!-- Generated by graphviz version 12.2.1 (20241206.2353)
 -->
<!-- Title: TicTacToeModel.java Pages: 1 -->
<svg width="426pt" height="84pt"
 viewBox="0.00 0.00 426.12 84.00" xmlns="http://www.w3.org/2000/svg" xmlns:xlink="http://www.w3.org/1999/xlink">
<g id="graph0" class="graph" transform="scale(1 1) rotate(0) translate(4 80)">
<title>TicTacToeModel.java</title>
<!-- Node1 -->
<g id="Node000001" class="node">
<title>Node1</title>
<g id="a_Node000001"><a xlink:title="TicTacToeModel class implementation.">
<polygon fill="#999999" stroke="#666666" points="248.75,-76 140.5,-76 140.5,-56 248.75,-56 248.75,-76"/>
<text text-anchor="middle" x="194.62" y="-62.5" font-family="Helvetica,sans-Serif" font-size="10.00">TicTacToeModel.java</text>
</a>
</g>
</g>
<!-- Node2 -->
<g id="Node000002" class="node">
<title>Node2</title>
<g id="a_Node000002"><a xlink:title=" ">
<polygon fill="#e0e0e0" stroke="#999999" points="171.25,-20 0,-20 0,0 171.25,0 171.25,-20"/>
<text text-anchor="middle" x="85.62" y="-6.5" font-family="Helvetica,sans-Serif" font-size="10.00">java.beans.PropertyChangeListener</text>
</a>
</g>
</g>
<!-- Node1&#45;&gt;Node2 -->
<g id="edge1_Node000001_Node000002" class="edge">
<title>Node1&#45;&gt;Node2</title>
<g id="a_edge1_Node000001_Node000002"><a xlink:title=" ">
<path fill="none" stroke="#63b8ff" d="M175.64,-55.59C158.86,-47.28 134.13,-35.03 114.84,-25.47"/>
<polygon fill="#63b8ff" stroke="#63b8ff" points="116.63,-22.45 106.12,-21.15 113.52,-28.73 116.63,-22.45"/>
</a>
</g>
</g>
<!-- Node3 -->
<g id="Node000003" class="node">
<title>Node3</title>
<g id="a_Node000003"><a xlink:title=" ">
<polygon fill="#e0e0e0" stroke="#999999" points="418.12,-20 189.12,-20 189.12,0 418.12,0 418.12,-20"/>
<text text-anchor="middle" x="303.62" y="-6.5" font-family="Helvetica,sans-Serif" font-size="10.00">javax.swing.event.SwingPropertyChangeSupport</text>
</a>
</g>
</g>
<!-- Node1&#45;&gt;Node3 -->
<g id="edge2_Node000001_Node000003" class="edge">
<title>Node1&#45;&gt;Node3</title>
<g id="a_edge2_Node000001_Node000003"><a xlink:title=" ">
<path fill="none" stroke="#63b8ff" d="M213.61,-55.59C230.39,-47.28 255.12,-35.03 274.41,-25.47"/>
<polygon fill="#63b8ff" stroke="#63b8ff" points="275.73,-28.73 283.13,-21.15 272.62,-22.45 275.73,-28.73"/>
</a>
</g>
</g>
</g>
</svg>
