<?xml version="1.0" encoding="UTF-8" standalone="no"?>
<!DOCTYPE svg PUBLIC "-//W3C//DTD SVG 1.1//EN"
 "http://www.w3.org/Graphics/SVG/1.1/DTD/svg11.dtd">
<!-- Generated by graphviz version 12.2.1 (20241206.2353)
 -->
<!-- Title: TicTacToeController.java Pages: 1 -->
<svg width="790pt" height="84pt"
 viewBox="0.00 0.00 790.25 84.00" xmlns="http://www.w3.org/2000/svg" xmlns:xlink="http://www.w3.org/1999/xlink">
<g id="graph0" class="graph" transform="scale(1 1) rotate(0) translate(4 80)">
<title>TicTacToeController.java</title>
<!-- Node1 -->
<g id="Node000001" class="node">
<title>Node1</title>
<g id="a_Node000001"><a xlink:title="TicTacToeController class implementation.">
<polygon fill="#999999" stroke="#666666" points="410,-76 286,-76 286,-56 410,-56 410,-76"/>
<text text-anchor="middle" x="348" y="-62.5" font-family="Helvetica,sans-Serif" font-size="10.00">TicTacToeController.java</text>
</a>
</g>
</g>
<!-- Node2 -->
<g id="Node000002" class="node">
<title>Node2</title>
<g id="a_Node000002"><a xlink:title=" ">
<polygon fill="#e0e0e0" stroke="#999999" points="106,-20 0,-20 0,0 106,0 106,-20"/>
<text text-anchor="middle" x="53" y="-6.5" font-family="Helvetica,sans-Serif" font-size="10.00">java.awt.Component</text>
</a>
</g>
</g>
<!-- Node1&#45;&gt;Node2 -->
<g id="edge1_Node000001_Node000002" class="edge">
<title>Node1&#45;&gt;Node2</title>
<g id="a_edge1_Node000001_Node000002"><a xlink:title=" ">
<path fill="none" stroke="#63b8ff" d="M296.28,-55.53C245.99,-46.33 169.52,-32.33 115.77,-22.49"/>
<polygon fill="#63b8ff" stroke="#63b8ff" points="116.62,-19.09 106.15,-20.73 115.36,-25.97 116.62,-19.09"/>
</a>
</g>
</g>
<!-- Node3 -->
<g id="Node000003" class="node">
<title>Node3</title>
<g id="a_Node000003"><a xlink:title=" ">
<polygon fill="#e0e0e0" stroke="#999999" points="215.5,-20 124.5,-20 124.5,0 215.5,0 215.5,-20"/>
<text text-anchor="middle" x="170" y="-6.5" font-family="Helvetica,sans-Serif" font-size="10.00">java.awt.Window</text>
</a>
</g>
</g>
<!-- Node1&#45;&gt;Node3 -->
<g id="edge2_Node000001_Node000003" class="edge">
<title>Node1&#45;&gt;Node3</title>
<g id="a_edge2_Node000001_Node000003"><a xlink:title=" ">
<path fill="none" stroke="#63b8ff" d="M316.99,-55.59C287.95,-46.78 244.3,-33.54 212.11,-23.78"/>
<polygon fill="#63b8ff" stroke="#63b8ff" points="213.28,-20.47 202.7,-20.92 211.25,-27.17 213.28,-20.47"/>
</a>
</g>
</g>
<!-- Node4 -->
<g id="Node000004" class="node">
<title>Node4</title>
<g id="a_Node000004"><a xlink:title=" ">
<polygon fill="#e0e0e0" stroke="#999999" points="320.25,-20 233.75,-20 233.75,0 320.25,0 320.25,-20"/>
<text text-anchor="middle" x="277" y="-6.5" font-family="Helvetica,sans-Serif" font-size="10.00">java.awt.event.*</text>
</a>
</g>
</g>
<!-- Node1&#45;&gt;Node4 -->
<g id="edge3_Node000001_Node000004" class="edge">
<title>Node1&#45;&gt;Node4</title>
<g id="a_edge3_Node000001_Node000004"><a xlink:title=" ">
<path fill="none" stroke="#63b8ff" d="M335.63,-55.59C325.35,-47.77 310.48,-36.46 298.29,-27.19"/>
<polygon fill="#63b8ff" stroke="#63b8ff" points="300.51,-24.48 290.43,-21.21 296.27,-30.05 300.51,-24.48"/>
</a>
</g>
</g>
<!-- Node5 -->
<g id="Node000005" class="node">
<title>Node5</title>
<g id="a_Node000005"><a xlink:title=" ">
<polygon fill="#e0e0e0" stroke="#999999" points="500.12,-20 337.88,-20 337.88,0 500.12,0 500.12,-20"/>
<text text-anchor="middle" x="419" y="-6.5" font-family="Helvetica,sans-Serif" font-size="10.00">java.beans.PropertyChangeEvent</text>
</a>
</g>
</g>
<!-- Node1&#45;&gt;Node5 -->
<g id="edge4_Node000001_Node000005" class="edge">
<title>Node1&#45;&gt;Node5</title>
<g id="a_edge4_Node000001_Node000005"><a xlink:title=" ">
<path fill="none" stroke="#63b8ff" d="M360.37,-55.59C370.65,-47.77 385.52,-36.46 397.71,-27.19"/>
<polygon fill="#63b8ff" stroke="#63b8ff" points="399.73,-30.05 405.57,-21.21 395.49,-24.48 399.73,-30.05"/>
</a>
</g>
</g>
<!-- Node6 -->
<g id="Node000006" class="node">
<title>Node6</title>
<g id="a_Node000006"><a xlink:title=" ">
<polygon fill="#e0e0e0" stroke="#999999" points="689.62,-20 518.38,-20 518.38,0 689.62,0 689.62,-20"/>
<text text-anchor="middle" x="604" y="-6.5" font-family="Helvetica,sans-Serif" font-size="10.00">java.beans.PropertyChangeListener</text>
</a>
</g>
</g>
<!-- Node1&#45;&gt;Node6 -->
<g id="edge5_Node000001_Node000006" class="edge">
<title>Node1&#45;&gt;Node6</title>
<g id="a_edge5_Node000001_Node000006"><a xlink:title=" ">
<path fill="none" stroke="#63b8ff" d="M392.88,-55.53C436.07,-46.42 501.5,-32.62 548.06,-22.8"/>
<polygon fill="#63b8ff" stroke="#63b8ff" points="548.62,-26.26 557.69,-20.77 547.18,-19.41 548.62,-26.26"/>
</a>
</g>
</g>
<!-- Node7 -->
<g id="Node000007" class="node">
<title>Node7</title>
<g id="a_Node000007"><a xlink:title=" ">
<polygon fill="#e0e0e0" stroke="#999999" points="782.25,-20 707.75,-20 707.75,0 782.25,0 782.25,-20"/>
<text text-anchor="middle" x="745" y="-6.5" font-family="Helvetica,sans-Serif" font-size="10.00">javax.swing.*</text>
</a>
</g>
</g>
<!-- Node1&#45;&gt;Node7 -->
<g id="edge6_Node000001_Node000007" class="edge">
<title>Node1&#45;&gt;Node7</title>
<g id="a_edge6_Node000001_Node000007"><a xlink:title=" ">
<path fill="none" stroke="#63b8ff" d="M410.31,-58.26C478.22,-50.64 590.33,-37.24 696.17,-20.37"/>
<polygon fill="#63b8ff" stroke="#63b8ff" points="696.57,-23.85 705.89,-18.81 695.46,-16.94 696.57,-23.85"/>
</a>
</g>
</g>
</g>
</svg>
