<?xml version="1.0" encoding="UTF-8" standalone="no"?>
<!DOCTYPE svg PUBLIC "-//W3C//DTD SVG 1.1//EN"
 "http://www.w3.org/Graphics/SVG/1.1/DTD/svg11.dtd">
<!-- Generated by graphviz version 12.2.1 (20241206.2353)
 -->
<!-- Title: TicTacToeView.java Pages: 1 -->
<svg width="1601pt" height="84pt"
 viewBox="0.00 0.00 1601.00 84.00" xmlns="http://www.w3.org/2000/svg" xmlns:xlink="http://www.w3.org/1999/xlink">
<g id="graph0" class="graph" transform="scale(1 1) rotate(0) translate(4 80)">
<title>TicTacToeView.java</title>
<!-- Node1 -->
<g id="Node000001" class="node">
<title>Node1</title>
<g id="a_Node000001"><a xlink:title="TicTacToeView class implementation.">
<polygon fill="#999999" stroke="#666666" points="876.25,-76 773.25,-76 773.25,-56 876.25,-56 876.25,-76"/>
<text text-anchor="middle" x="824.75" y="-62.5" font-family="Helvetica,sans-Serif" font-size="10.00">TicTacToeView.java</text>
</a>
</g>
</g>
<!-- Node2 -->
<g id="Node000002" class="node">
<title>Node2</title>
<g id="a_Node000002"><a xlink:title=" ">
<polygon fill="#e0e0e0" stroke="#999999" points="113.5,-20 0,-20 0,0 113.5,0 113.5,-20"/>
<text text-anchor="middle" x="56.75" y="-6.5" font-family="Helvetica,sans-Serif" font-size="10.00">java.awt.BorderLayout</text>
</a>
</g>
</g>
<!-- Node1&#45;&gt;Node2 -->
<g id="edge1_Node000001_Node000002" class="edge">
<title>Node1&#45;&gt;Node2</title>
<g id="a_edge1_Node000001_Node000002"><a xlink:title=" ">
<path fill="none" stroke="#63b8ff" d="M773.05,-63C658.33,-58.27 373.59,-44.98 125.22,-20.29"/>
<polygon fill="#63b8ff" stroke="#63b8ff" points="125.6,-16.81 115.3,-19.29 124.9,-23.77 125.6,-16.81"/>
</a>
</g>
</g>
<!-- Node3 -->
<g id="Node000003" class="node">
<title>Node3</title>
<g id="a_Node000003"><a xlink:title=" ">
<polygon fill="#e0e0e0" stroke="#999999" points="210.25,-20 131.25,-20 131.25,0 210.25,0 210.25,-20"/>
<text text-anchor="middle" x="170.75" y="-6.5" font-family="Helvetica,sans-Serif" font-size="10.00">java.awt.Color</text>
</a>
</g>
</g>
<!-- Node1&#45;&gt;Node3 -->
<g id="edge2_Node000001_Node000003" class="edge">
<title>Node1&#45;&gt;Node3</title>
<g id="a_edge2_Node000001_Node000003"><a xlink:title=" ">
<path fill="none" stroke="#63b8ff" d="M772.77,-63.02C669.7,-58.68 432,-46.64 221.8,-20.12"/>
<polygon fill="#63b8ff" stroke="#63b8ff" points="222.4,-16.66 212.04,-18.87 221.52,-23.61 222.4,-16.66"/>
</a>
</g>
</g>
<!-- Node4 -->
<g id="Node000004" class="node">
<title>Node4</title>
<g id="a_Node000004"><a xlink:title=" ">
<polygon fill="#e0e0e0" stroke="#999999" points="323.12,-20 228.38,-20 228.38,0 323.12,0 323.12,-20"/>
<text text-anchor="middle" x="275.75" y="-6.5" font-family="Helvetica,sans-Serif" font-size="10.00">java.awt.Graphics</text>
</a>
</g>
</g>
<!-- Node1&#45;&gt;Node4 -->
<g id="edge3_Node000001_Node000004" class="edge">
<title>Node1&#45;&gt;Node4</title>
<g id="a_edge3_Node000001_Node000004"><a xlink:title=" ">
<path fill="none" stroke="#63b8ff" d="M772.81,-61.43C684.82,-55.13 500.58,-40.84 334.78,-20.31"/>
<polygon fill="#63b8ff" stroke="#63b8ff" points="335.24,-16.84 324.88,-19.07 334.37,-23.78 335.24,-16.84"/>
</a>
</g>
</g>
<!-- Node5 -->
<g id="Node000005" class="node">
<title>Node5</title>
<g id="a_Node000005"><a xlink:title=" ">
<polygon fill="#e0e0e0" stroke="#999999" points="444.25,-20 341.25,-20 341.25,0 444.25,0 444.25,-20"/>
<text text-anchor="middle" x="392.75" y="-6.5" font-family="Helvetica,sans-Serif" font-size="10.00">java.awt.GridLayout</text>
</a>
</g>
</g>
<!-- Node1&#45;&gt;Node5 -->
<g id="edge4_Node000001_Node000005" class="edge">
<title>Node1&#45;&gt;Node5</title>
<g id="a_edge4_Node000001_Node000005"><a xlink:title=" ">
<path fill="none" stroke="#63b8ff" d="M772.94,-59.2C703.18,-51.3 574.92,-36.39 455.59,-20.36"/>
<polygon fill="#63b8ff" stroke="#63b8ff" points="456.33,-16.92 445.95,-19.05 455.39,-23.86 456.33,-16.92"/>
</a>
</g>
</g>
<!-- Node6 -->
<g id="Node000006" class="node">
<title>Node6</title>
<g id="a_Node000006"><a xlink:title=" ">
<polygon fill="#e0e0e0" stroke="#999999" points="571.25,-20 462.25,-20 462.25,0 571.25,0 571.25,-20"/>
<text text-anchor="middle" x="516.75" y="-6.5" font-family="Helvetica,sans-Serif" font-size="10.00">java.awt.BasicStroke</text>
</a>
</g>
</g>
<!-- Node1&#45;&gt;Node6 -->
<g id="edge5_Node000001_Node000006" class="edge">
<title>Node1&#45;&gt;Node6</title>
<g id="a_edge5_Node000001_Node000006"><a xlink:title=" ">
<path fill="none" stroke="#63b8ff" d="M772.85,-55.9C720.21,-46.67 638.61,-32.37 581.71,-22.39"/>
<polygon fill="#63b8ff" stroke="#63b8ff" points="582.62,-19 572.17,-20.72 581.41,-25.89 582.62,-19"/>
</a>
</g>
</g>
<!-- Node7 -->
<g id="Node000007" class="node">
<title>Node7</title>
<g id="a_Node000007"><a xlink:title=" ">
<polygon fill="#e0e0e0" stroke="#999999" points="696.5,-20 589,-20 589,0 696.5,0 696.5,-20"/>
<text text-anchor="middle" x="642.75" y="-6.5" font-family="Helvetica,sans-Serif" font-size="10.00">java.awt.Graphics2D</text>
</a>
</g>
</g>
<!-- Node1&#45;&gt;Node7 -->
<g id="edge6_Node000001_Node000007" class="edge">
<title>Node1&#45;&gt;Node7</title>
<g id="a_edge6_Node000001_Node000007"><a xlink:title=" ">
<path fill="none" stroke="#63b8ff" d="M793.05,-55.59C763.22,-46.74 718.33,-33.43 685.38,-23.65"/>
<polygon fill="#63b8ff" stroke="#63b8ff" points="686.73,-20.4 676.15,-20.91 684.74,-27.11 686.73,-20.4"/>
</a>
</g>
</g>
<!-- Node8 -->
<g id="Node000008" class="node">
<title>Node8</title>
<g id="a_Node000008"><a xlink:title=" ">
<polygon fill="#e0e0e0" stroke="#999999" points="801,-20 714.5,-20 714.5,0 801,0 801,-20"/>
<text text-anchor="middle" x="757.75" y="-6.5" font-family="Helvetica,sans-Serif" font-size="10.00">java.awt.event.*</text>
</a>
</g>
</g>
<!-- Node1&#45;&gt;Node8 -->
<g id="edge7_Node000001_Node000008" class="edge">
<title>Node1&#45;&gt;Node8</title>
<g id="a_edge7_Node000001_Node000008"><a xlink:title=" ">
<path fill="none" stroke="#63b8ff" d="M813.08,-55.59C803.47,-47.85 789.62,-36.69 778.18,-27.47"/>
<polygon fill="#63b8ff" stroke="#63b8ff" points="780.45,-24.8 770.47,-21.25 776.05,-30.25 780.45,-24.8"/>
</a>
</g>
</g>
<!-- Node9 -->
<g id="Node000009" class="node">
<title>Node9</title>
<g id="a_Node000009"><a xlink:title=" ">
<polygon fill="#e0e0e0" stroke="#999999" points="966.75,-20 818.75,-20 818.75,0 966.75,0 966.75,-20"/>
<text text-anchor="middle" x="892.75" y="-6.5" font-family="Helvetica,sans-Serif" font-size="10.00">java.awt.image.BufferedImage</text>
</a>
</g>
</g>
<!-- Node1&#45;&gt;Node9 -->
<g id="edge8_Node000001_Node000009" class="edge">
<title>Node1&#45;&gt;Node9</title>
<g id="a_edge8_Node000001_Node000009"><a xlink:title=" ">
<path fill="none" stroke="#63b8ff" d="M836.59,-55.59C846.44,-47.77 860.68,-36.46 872.36,-27.19"/>
<polygon fill="#63b8ff" stroke="#63b8ff" points="874.2,-30.2 879.86,-21.24 869.85,-24.72 874.2,-30.2"/>
</a>
</g>
</g>
<!-- Node10 -->
<g id="Node000010" class="node">
<title>Node10</title>
<g id="a_Node000010"><a xlink:title=" ">
<polygon fill="#e0e0e0" stroke="#999999" points="1086.5,-20 985,-20 985,0 1086.5,0 1086.5,-20"/>
<text text-anchor="middle" x="1035.75" y="-6.5" font-family="Helvetica,sans-Serif" font-size="10.00">java.io.IOException</text>
</a>
</g>
</g>
<!-- Node1&#45;&gt;Node10 -->
<g id="edge9_Node000001_Node000010" class="edge">
<title>Node1&#45;&gt;Node10</title>
<g id="a_edge9_Node000001_Node000010"><a xlink:title=" ">
<path fill="none" stroke="#63b8ff" d="M861.5,-55.59C896.54,-46.63 949.48,-33.08 987.82,-23.27"/>
<polygon fill="#63b8ff" stroke="#63b8ff" points="988.42,-26.72 997.24,-20.85 986.69,-19.94 988.42,-26.72"/>
</a>
</g>
</g>
<!-- Node11 -->
<g id="Node000011" class="node">
<title>Node11</title>
<g id="a_Node000011"><a xlink:title=" ">
<polygon fill="#e0e0e0" stroke="#999999" points="1201.25,-20 1104.25,-20 1104.25,0 1201.25,0 1201.25,-20"/>
<text text-anchor="middle" x="1152.75" y="-6.5" font-family="Helvetica,sans-Serif" font-size="10.00">java.util.EnumMap</text>
</a>
</g>
</g>
<!-- Node1&#45;&gt;Node11 -->
<g id="edge10_Node000001_Node000011" class="edge">
<title>Node1&#45;&gt;Node11</title>
<g id="a_edge10_Node000001_Node000011"><a xlink:title=" ">
<path fill="none" stroke="#63b8ff" d="M876.72,-56.44C935.48,-46.77 1030.98,-31.05 1092.82,-20.87"/>
<polygon fill="#63b8ff" stroke="#63b8ff" points="1093.17,-24.36 1102.47,-19.28 1092.03,-17.45 1093.17,-24.36"/>
</a>
</g>
</g>
<!-- Node12 -->
<g id="Node000012" class="node">
<title>Node12</title>
<g id="a_Node000012"><a xlink:title=" ">
<polygon fill="#e0e0e0" stroke="#999999" points="1290.5,-20 1219,-20 1219,0 1290.5,0 1290.5,-20"/>
<text text-anchor="middle" x="1254.75" y="-6.5" font-family="Helvetica,sans-Serif" font-size="10.00">java.util.Map</text>
</a>
</g>
</g>
<!-- Node1&#45;&gt;Node12 -->
<g id="edge11_Node000001_Node000012" class="edge">
<title>Node1&#45;&gt;Node12</title>
<g id="a_edge11_Node000001_Node000012"><a xlink:title=" ">
<path fill="none" stroke="#63b8ff" d="M876.45,-60.39C948.52,-53.66 1083.47,-39.92 1207.57,-20.4"/>
<polygon fill="#63b8ff" stroke="#63b8ff" points="1207.96,-23.89 1217.28,-18.86 1206.86,-16.97 1207.96,-23.89"/>
</a>
</g>
</g>
<!-- Node13 -->
<g id="Node000013" class="node">
<title>Node13</title>
<g id="a_Node000013"><a xlink:title=" ">
<polygon fill="#e0e0e0" stroke="#999999" points="1365.38,-20 1308.12,-20 1308.12,0 1365.38,0 1365.38,-20"/>
<text text-anchor="middle" x="1336.75" y="-6.5" font-family="Helvetica,sans-Serif" font-size="10.00">java.net.*</text>
</a>
</g>
</g>
<!-- Node1&#45;&gt;Node13 -->
<g id="edge12_Node000001_Node000013" class="edge">
<title>Node1&#45;&gt;Node13</title>
<g id="a_edge12_Node000001_Node000013"><a xlink:title=" ">
<path fill="none" stroke="#63b8ff" d="M876.73,-62.53C962.39,-57.93 1138.68,-46.21 1296.42,-20.36"/>
<polygon fill="#63b8ff" stroke="#63b8ff" points="1296.97,-23.82 1306.25,-18.72 1295.82,-16.91 1296.97,-23.82"/>
</a>
</g>
</g>
<!-- Node14 -->
<g id="Node000014" class="node">
<title>Node14</title>
<g id="a_Node000014"><a xlink:title=" ">
<polygon fill="#e0e0e0" stroke="#999999" points="1500,-20 1383.5,-20 1383.5,0 1500,0 1500,-20"/>
<text text-anchor="middle" x="1441.75" y="-6.5" font-family="Helvetica,sans-Serif" font-size="10.00">javax.imageio.ImageIO</text>
</a>
</g>
</g>
<!-- Node1&#45;&gt;Node14 -->
<g id="edge13_Node000001_Node000014" class="edge">
<title>Node1&#45;&gt;Node14</title>
<g id="a_edge13_Node000001_Node000014"><a xlink:title=" ">
<path fill="none" stroke="#63b8ff" d="M876.4,-61.67C972.03,-55.31 1183.4,-40.35 1372.06,-20.24"/>
<polygon fill="#63b8ff" stroke="#63b8ff" points="1372.23,-23.74 1381.8,-19.19 1371.48,-16.78 1372.23,-23.74"/>
</a>
</g>
</g>
<!-- Node15 -->
<g id="Node000015" class="node">
<title>Node15</title>
<g id="a_Node000015"><a xlink:title=" ">
<polygon fill="#e0e0e0" stroke="#999999" points="1593,-20 1518.5,-20 1518.5,0 1593,0 1593,-20"/>
<text text-anchor="middle" x="1555.75" y="-6.5" font-family="Helvetica,sans-Serif" font-size="10.00">javax.swing.*</text>
</a>
</g>
</g>
<!-- Node1&#45;&gt;Node15 -->
<g id="edge14_Node000001_Node000015" class="edge">
<title>Node1&#45;&gt;Node15</title>
<g id="a_edge14_Node000001_Node000015"><a xlink:title=" ">
<path fill="none" stroke="#63b8ff" d="M876.44,-63.78C989.1,-60.64 1265.32,-50.42 1506.99,-20.05"/>
<polygon fill="#63b8ff" stroke="#63b8ff" points="1507.13,-23.56 1516.6,-18.82 1506.24,-16.61 1507.13,-23.56"/>
</a>
</g>
</g>
</g>
</svg>
